<svg xmlns="http://www.w3.org/2000/svg" viewBox="0 0 128 128">
  <path fill="#00599c" d="M118.766 95.82c.89-1.543 1.441-3.28 1.441-4.843V36.78c0-1.558-.55-3.297-1.441-4.84l-55.32 31.94Zm0 0"/>
  <path fill="#004482" d="m68.36 126.586 46.933-27.094c1.352-.781 2.582-2.129 3.473-3.672l-55.32-31.94L8.12 95.82c.89 1.543 2.121 2.89 3.473 3.672l46.933 27.094c2.703 1.562 7.13 1.562 9.832 0Zm0 0"/>
  <path fill="#659ad2" d="M118.766 31.941c-.891-1.546-2.121-2.894-3.473-3.671L68.359 1.172c-2.703-1.563-7.129-1.563-9.832 0L11.594 28.27C8.89 29.828 6.68 33.66 6.68 36.78v54.196c0 1.562.55 3.3 1.441 4.843L63.445 63.88Zm0 0"/>
  <text x="64" y="68" font-family="Arial, sans-serif" font-size="24" font-weight="bold" fill="white" text-anchor="middle">Small</text>
  <text x="64" y="92" font-family="Arial, sans-serif" font-size="24" font-weight="bold" fill="white" text-anchor="middle">talk</text>
</svg>
