<svg xmlns="http://www.w3.org/2000/svg" xmlns:xlink="http://www.w3.org/1999/xlink" version="1.1" width="4060" height="1645" style="width: 4060px; height: 1645px; background: #ffffff" viewBox="0 0 4060 1645"><style id="v-3" type="text/css">        .joint-element .scalable * {            vector-effect: non-scaling-stroke;        }    </style><defs joint-selector="defs"><marker id="v-2-527367903" orient="auto" overflow="visible" markerUnits="userSpaceOnUse"><path id="v-70" stroke="#cccccc" fill="#cccccc" transform="rotate(180)" d="M 20 -10 0 0 20 10 Z"></path></marker><marker id="v-21252848929" orient="auto" overflow="visible" markerUnits="userSpaceOnUse"><path id="v-1103" stroke="#444444" fill="#444444" transform="rotate(180)" d="M 20 -10 0 0 20 10 Z"></path></marker></defs><g joint-selector="layers"  transform="matrix(1,0,0,1,0,0)"><g  style="pointer-events: none;"></g><g ></g><g  style="user-select: none;"><!--z-index:1--><!--z-index:2--><!--z-index:3--><!--z-index:4--><!--z-index:5--><!--z-index:6--><!--z-index:7--><!--z-index:8--><!--z-index:9--><!--z-index:10--><!--z-index:11--><!--z-index:12--><!--z-index:13--><!--z-index:14--><!--z-index:15--><!--z-index:16--><!--z-index:17--><g   id="j_100"  transform="translate(20,1601)"><g id="v-1304"><text  id="v-1305" font-size="24px" xml:space="preserve" y="0.8em" font-weight="normal" text-anchor="start" fill="#444444" pointer-events="none" display="block" font-family="Tahoma, Verdana, Helvetica, Arial"><tspan dy="0" >Dienstag, 14. April 2026 um 18:44 Mitteleuropäische Sommerzeit</tspan></text></g></g><!--z-index:18--><g   id="j_99"  transform="translate(20,1555)"><g id="v-1302"><text  id="v-1303" font-size="36px" xml:space="preserve" y="0.8em" font-weight="normal" text-anchor="start" fill="#444444" pointer-events="none" display="block" font-family="Tahoma, Verdana, Helvetica, Arial"><tspan dy="0" >Level 2 - Docker Compose Runtime (vue-ui, api-gateway, game-service, postgres, mongodb)</tspan></text></g></g><!--z-index:19--><g   id="j_101"  transform="translate(200,554)" style=""><g  id="v-1309" style="opacity: 1;"><rect  x="0" y="160" width="400" height="240" rx="70" id="v-1311" stroke-width="2" pointer-events="visiblePainted" fill="#08427b" stroke="#073b6f" stroke-dasharray="" style="fill: rgb(8, 66, 123); stroke: rgb(7, 59, 111);"></rect><circle  cx="200" cy="88.88888888888889" r="88.88888888888889" id="v-1310" stroke-width="2" pointer-events="visiblePainted" fill="#08427b" stroke="#073b6f" stroke-dasharray="" style="fill: rgb(8, 66, 123); stroke: rgb(7, 59, 111);"></circle><line  x1="80" y1="266.6666666666667" x2="80" y2="400" id="v-1317" stroke="#073b6f" stroke-width="1" stroke-dasharray="" style="stroke: rgb(7, 59, 111);"></line><line  x1="320" y1="266.6666666666667" x2="320" y2="400" id="v-1318" stroke="#073b6f" stroke-width="1" stroke-dasharray="" style="stroke: rgb(7, 59, 111);"></line><text  id="v-1312" font-size="33.599999999999994px" xml:space="preserve" y="216.9" font-weight="bold" text-anchor="middle" pointer-events="visible" font-family="Tahoma, Verdana, Helvetica, Arial" fill="#ffffff" dominant-baseline="hanging" transform="matrix(1,0,0,1,200,0)" style="fill: rgb(255, 255, 255);"><tspan dy="0" >Chess Player</tspan></text><text  id="v-1313" font-size="16.799999999999997px" xml:space="preserve" y="258.5" text-anchor="middle" font-family="Tahoma, Verdana, Helvetica, Arial" fill="#ffffff" dominant-baseline="hanging" transform="matrix(1,0,0,1,200,0)" style="display: block; fill: rgb(255, 255, 255);"><tspan dy="0" >[Person]</tspan></text><text  id="v-1314" font-size="24px" xml:space="preserve" y="290.3" text-anchor="middle" font-family="Tahoma, Verdana, Helvetica, Arial" fill="#ffffff" dominant-baseline="hanging" transform="matrix(1,0,0,1,200,0)" style="display: block; fill: rgb(255, 255, 255);"><tspan dy="0" >Plays chess through the web</tspan><tspan dy="1.2em" x="0" >frontend or the desktop app.</tspan></text><g  id="v-1315" font-weight="normal" text-anchor="middle" color="#ffffff" transform="matrix(1,0,0,1,197.5,368)" display="none" style="fill: rgb(255, 255, 255);"><g ></g><g ></g><g ></g><g ></g></g><image  id="v-1316"></image></g></g><!--z-index:20--><g   id="j_102"  transform="translate(200,1004)" style=""><g  id="v-1322" style="opacity: 1;"><rect  x="0" y="160" width="400" height="240" rx="70" id="v-1324" stroke-width="2" pointer-events="visiblePainted" fill="#08427b" stroke="#073b6f" stroke-dasharray="" style="fill: rgb(8, 66, 123); stroke: rgb(7, 59, 111);"></rect><circle  cx="200" cy="88.88888888888889" r="88.88888888888889" id="v-1323" stroke-width="2" pointer-events="visiblePainted" fill="#08427b" stroke="#073b6f" stroke-dasharray="" style="fill: rgb(8, 66, 123); stroke: rgb(7, 59, 111);"></circle><line  x1="80" y1="266.6666666666667" x2="80" y2="400" id="v-1330" stroke="#073b6f" stroke-width="1" stroke-dasharray="" style="stroke: rgb(7, 59, 111);"></line><line  x1="320" y1="266.6666666666667" x2="320" y2="400" id="v-1331" stroke="#073b6f" stroke-width="1" stroke-dasharray="" style="stroke: rgb(7, 59, 111);"></line><text  id="v-1325" font-size="33.599999999999994px" xml:space="preserve" y="216.9" font-weight="bold" text-anchor="middle" pointer-events="visible" font-family="Tahoma, Verdana, Helvetica, Arial" fill="#ffffff" dominant-baseline="hanging" transform="matrix(1,0,0,1,200,0)" style="fill: rgb(255, 255, 255);"><tspan dy="0" >Developer</tspan></text><text  id="v-1326" font-size="16.799999999999997px" xml:space="preserve" y="258.5" text-anchor="middle" font-family="Tahoma, Verdana, Helvetica, Arial" fill="#ffffff" dominant-baseline="hanging" transform="matrix(1,0,0,1,200,0)" style="display: block; fill: rgb(255, 255, 255);"><tspan dy="0" >[Person]</tspan></text><text  id="v-1327" font-size="24px" xml:space="preserve" y="290.3" text-anchor="middle" font-family="Tahoma, Verdana, Helvetica, Arial" fill="#ffffff" dominant-baseline="hanging" transform="matrix(1,0,0,1,200,0)" style="display: block; fill: rgb(255, 255, 255);"><tspan dy="0" >Builds, runs, and seeds the</tspan><tspan dy="1.2em" x="0" >system.</tspan></text><g  id="v-1328" font-weight="normal" text-anchor="middle" color="#ffffff" transform="matrix(1,0,0,1,197.5,368)" display="none" style="fill: rgb(255, 255, 255);"><g ></g><g ></g><g ></g><g ></g></g><image  id="v-1329"></image></g></g><!--z-index:21--><g   id="j_103"  transform="translate(3360,160)" style=""><g  id="v-1338" style="opacity: 1;"><rect  id="v-1339" rx="1" ry="1" stroke-width="2" pointer-events="visiblePainted" fill="#999999" stroke="#8a8a8a" stroke-dasharray="" width="450" height="300" style="fill: rgb(153, 153, 153); stroke: rgb(138, 138, 138);"></rect><text  id="v-1340" font-size="33.599999999999994px" xml:space="preserve" y="86.9" font-weight="bold" text-anchor="middle" pointer-events="visible" font-family="Tahoma, Verdana, Helvetica, Arial" fill="#ffffff" dominant-baseline="hanging" transform="matrix(1,0,0,1,225,0)" style="fill: rgb(255, 255, 255);"><tspan dy="0" >Lichess Openings Dataset</tspan></text><text  id="v-1341" font-size="16.799999999999997px" xml:space="preserve" y="128.5" text-anchor="middle" font-family="Tahoma, Verdana, Helvetica, Arial" fill="#ffffff" dominant-baseline="hanging" transform="matrix(1,0,0,1,225,0)" style="display: block; fill: rgb(255, 255, 255);"><tspan dy="0" >[Software System]</tspan></text><text  id="v-1342" font-size="24px" xml:space="preserve" y="160.3" text-anchor="middle" font-family="Tahoma, Verdana, Helvetica, Arial" fill="#ffffff" dominant-baseline="hanging" transform="matrix(1,0,0,1,225,0)" style="display: block; fill: rgb(255, 255, 255);"><tspan dy="0" >Bundled TSV opening files used to</tspan><tspan dy="1.2em" x="0" >seed and enrich the application.</tspan></text><g  id="v-1343" color="#ffffff" transform="matrix(1,0,0,1,222.5,268)" display="none" style="fill: rgb(255, 255, 255);"><g ></g><g ></g><g ></g><g ></g></g><image  id="v-1344"></image></g></g><!--z-index:22--><g   id="j_105"  transform="translate(940,510)" style="; opacity: 1;"><g id="v-1363"><rect  id="v-1364" width="2920" height="873" rx="0" ry="0" stroke-width="2" pointer-events="none" stroke="#0f5eaa" fill="#ffffff" opacity="1" stroke-dasharray=""></rect><text  id="v-1365" font-size="33.599999999999994px" xml:space="preserve" y="834" font-weight="bold" text-anchor="start" pointer-events="visible" font-family="Tahoma, Verdana, Helvetica, Arial" fill="#0f5eaa" transform="matrix(1,0,0,1,15,0)"><tspan dy="0" >Chess Application</tspan></text><text  id="v-1366" font-size="16.799999999999997px" xml:space="preserve" y="858" font-weight="normal" text-anchor="start" pointer-events="visible" font-family="Tahoma, Verdana, Helvetica, Arial" fill="#0f5eaa" transform="matrix(1,0,0,1,15,0)"><tspan dy="0" >[Software System]</tspan></text><image  id="v-1367" pointer-events="visible"></image></g></g><!--z-index:23--><g   id="j_104"  transform="translate(990,604)" style=""><g  id="v-1351" style="opacity: 1;"><rect  id="v-1352" rx="10" ry="10" stroke-width="2" pointer-events="visiblePainted" fill="#cf4900" stroke="#cf4900" stroke-dasharray="" width="450" height="302" style="fill: rgb(207, 73, 0); stroke: rgb(207, 73, 0);"></rect><rect  id="v-1353" rx="10" ry="10" stroke-width="0" pointer-events="visiblePainted" fill="#e65100" stroke="#cf4900" width="446" height="260" x="2" y="40" style="fill: rgb(230, 81, 0);"></rect><ellipse  id="v-1360" fill="#e65100" cx="20" cy="20" rx="10" ry="10" style="fill: rgb(230, 81, 0);"></ellipse><ellipse  id="v-1361" fill="#e65100" cx="50" cy="20" rx="10" ry="10" style="fill: rgb(230, 81, 0);"></ellipse><ellipse  id="v-1362" fill="#e65100" cx="80" cy="20" rx="10" ry="10" style="fill: rgb(230, 81, 0);"></ellipse><rect  id="v-1354" rx="10" ry="10" stroke-width="0" pointer-events="visiblePainted" fill="#e65100" width="340" height="20" x="100" y="10" style="fill: rgb(230, 81, 0);"></rect><text  id="v-1355" font-size="33.599999999999994px" xml:space="preserve" y="34.900000000000006" font-weight="bold" text-anchor="middle" pointer-events="visible" font-family="Tahoma, Verdana, Helvetica, Arial" fill="#ffffff" dominant-baseline="hanging" transform="matrix(1,0,0,1,225,0)" style="fill: rgb(255, 255, 255);"><tspan dy="0" >Vue UI</tspan></text><text  id="v-1356" font-size="16.799999999999997px" xml:space="preserve" y="76.5" text-anchor="middle" font-family="Tahoma, Verdana, Helvetica, Arial" fill="#ffffff" dominant-baseline="hanging" transform="matrix(1,0,0,1,225,0)" style="display: block; fill: rgb(255, 255, 255);"><tspan dy="0" >[Container: Vue 3 / TypeScript / Pinia / nginx]</tspan></text><text  id="v-1357" font-size="24px" xml:space="preserve" y="108.3" text-anchor="middle" font-family="Tahoma, Verdana, Helvetica, Arial" fill="#ffffff" dominant-baseline="hanging" transform="matrix(1,0,0,1,225,0)" style="display: block; fill: rgb(255, 255, 255);"><tspan dy="0" >Browser frontend built with Vue 3</tspan><tspan dy="1.2em" x="0" >and served from nginx. It creates</tspan><tspan dy="1.2em" x="0" >and joins game sessions through</tspan><tspan dy="1.2em" x="0" >the gateway, then subscribes to live</tspan><tspan dy="1.2em" x="0" >move updates over WebSocket. This</tspan><tspan dy="1.2em" x="0" >is the `vue-ui` service in</tspan><tspan dy="1.2em" x="0" >docker-compose.</tspan></text><g  id="v-1358" font-weight="normal" text-anchor="middle" color="#ffffff" transform="matrix(1,0,0,1,222.5,268)" display="none" style="fill: rgb(255, 255, 255);"><g ></g><g ></g><g ></g><g ></g></g><image  id="v-1359"></image></g></g><!--z-index:24--><g   id="j_106"  transform="translate(1780,560)" style=""><g  id="v-1374" style="opacity: 1;"><polygon  id="v-1375" stroke-width="2" pointer-events="visiblePainted" fill="#2e7d32" stroke="#29712d" stroke-dasharray="" points="112.5,0 337.5,0 450,194.5 337.5,389 112.5,389 0,194.5" style="fill: rgb(46, 125, 50); stroke: rgb(41, 113, 45);"></polygon><text  id="v-1376" font-size="33.599999999999994px" xml:space="preserve" y="59.400000000000006" font-weight="bold" text-anchor="middle" pointer-events="visible" font-family="Tahoma, Verdana, Helvetica, Arial" fill="#ffffff" dominant-baseline="hanging" transform="matrix(1,0,0,1,225,0)" style="fill: rgb(255, 255, 255);"><tspan dy="0" >API Gateway</tspan></text><text  id="v-1377" font-size="16.799999999999997px" xml:space="preserve" y="101" text-anchor="middle" font-family="Tahoma, Verdana, Helvetica, Arial" fill="#ffffff" dominant-baseline="hanging" transform="matrix(1,0,0,1,225,0)" style="display: block; fill: rgb(255, 255, 255);"><tspan dy="0" >[Container: Scala 3 / http4s Ember]</tspan></text><text  id="v-1378" font-size="24px" xml:space="preserve" y="132.8" text-anchor="middle" font-family="Tahoma, Verdana, Helvetica, Arial" fill="#ffffff" dominant-baseline="hanging" transform="matrix(1,0,0,1,225,0)" style="display: block; fill: rgb(255, 255, 255);"><tspan dy="0" >Public HTTP entrypoint. Proxies</tspan><tspan dy="1.2em" x="0" >frontend API calls for game creation,</tspan><tspan dy="1.2em" x="0" >session listing, state reads, moves,</tspan><tspan dy="1.2em" x="0" >and opening lookup to the backend</tspan><tspan dy="1.2em" x="0" >game service. This is the</tspan><tspan dy="1.2em" x="0" >`api-gateway` service in</tspan><tspan dy="1.2em" x="0" >docker-compose.</tspan></text><g  id="v-1379" font-weight="normal" text-anchor="middle" color="#ffffff" transform="matrix(1,0,0,1,222.5,357)" display="none" style="fill: rgb(255, 255, 255);"><g ></g><g ></g><g ></g><g ></g></g><image  id="v-1380"></image></g></g><!--z-index:25--><g   id="j_107"  transform="translate(2570,560)" style=""><g  id="v-1387" style="opacity: 1;"><polygon  id="v-1388" stroke-width="2" pointer-events="visiblePainted" fill="#2e7d32" stroke="#29712d" stroke-dasharray="" points="112.5,0 337.5,0 450,194.5 337.5,389 112.5,389 0,194.5" style="fill: rgb(46, 125, 50); stroke: rgb(41, 113, 45);"></polygon><text  id="v-1389" font-size="33.599999999999994px" xml:space="preserve" y="59.400000000000006" font-weight="bold" text-anchor="middle" pointer-events="visible" font-family="Tahoma, Verdana, Helvetica, Arial" fill="#ffffff" dominant-baseline="hanging" transform="matrix(1,0,0,1,225,0)" style="fill: rgb(255, 255, 255);"><tspan dy="0" >Game Service</tspan></text><text  id="v-1390" font-size="16.799999999999997px" xml:space="preserve" y="101" text-anchor="middle" font-family="Tahoma, Verdana, Helvetica, Arial" fill="#ffffff" dominant-baseline="hanging" transform="matrix(1,0,0,1,225,0)" style="display: block; fill: rgb(255, 255, 255);"><tspan dy="0" >[Container: Scala 3 / Cats Effect / http4s Ember]</tspan></text><text  id="v-1391" font-size="24px" xml:space="preserve" y="132.8" text-anchor="middle" font-family="Tahoma, Verdana, Helvetica, Arial" fill="#ffffff" dominant-baseline="hanging" transform="matrix(1,0,0,1,225,0)" style="display: block; fill: rgb(255, 255, 255);"><tspan dy="0" >Authoritative backend for chess</tspan><tspan dy="1.2em" x="0" >games and sessions. This is the</tspan><tspan dy="1.2em" x="0" >`game-service` service in</tspan><tspan dy="1.2em" x="0" >docker-compose. It is one JVM</tspan><tspan dy="1.2em" x="0" >process built from the repository's</tspan><tspan dy="1.2em" x="0" >modular backend rather than a set</tspan><tspan dy="1.2em" x="0" >of HTTP-connected internal services.</tspan></text><g  id="v-1392" font-weight="normal" text-anchor="middle" color="#ffffff" transform="matrix(1,0,0,1,210,357)" display="none" style="fill: rgb(255, 255, 255);"><g  transform="translate(5 0)"><svg xmlns="http://www.w3.org/2000/svg" width="20" height="20" fill="currentColor" viewBox="0 0 16 16"><path fill-rule="evenodd" d="M6.5 12a5.5 5.5 0 1 0 0-11 5.5 5.5 0 0 0 0 11zM13 6.5a6.5 6.5 0 1 1-13 0 6.5 6.5 0 0 1 13 0z"></path><path d="M10.344 11.742c.03.04.062.078.098.115l3.85 3.85a1 1 0 0 0 1.415-1.414l-3.85-3.85a1.007 1.007 0 0 0-.115-.1 6.538 6.538 0 0 1-1.398 1.4z"></path><path fill-rule="evenodd" d="M6.5 3a.5.5 0 0 1 .5.5V6h2.5a.5.5 0 0 1 0 1H7v2.5a.5.5 0 0 1-1 0V7H3.5a.5.5 0 0 1 0-1H6V3.5a.5.5 0 0 1 .5-.5z"></path></svg></g><g ></g><g ></g><g ></g></g><image  id="v-1393"></image></g></g><!--z-index:26--><g   id="j_108"  transform="translate(3360,604)" style=""><g  id="v-1397" style="opacity: 1;"><path  d="M 0,30 a 225,30 0,0,0 450 0 a 225,30 0,0,0 -450 0 l 0,240 a 225,30 0,0,0 450 0 l 0,-240" id="v-1398" stroke-width="2" pointer-events="visiblePainted" fill="#6b3a9c" stroke="#60348c" stroke-dasharray="" style="fill: rgb(107, 58, 156); stroke: rgb(96, 52, 140);"></path><rect  id="v-1399" stroke-width="0" pointer-events="visiblePainted" fill="none" stroke="none" width="450" height="270" x="0" y="30"></rect><text  id="v-1400" font-size="33.599999999999994px" xml:space="preserve" y="73.10000000000001" font-weight="bold" text-anchor="middle" pointer-events="visible" font-family="Tahoma, Verdana, Helvetica, Arial" fill="#ffffff" dominant-baseline="hanging" transform="matrix(1,0,0,1,225,0)" style="fill: rgb(255, 255, 255);"><tspan dy="0" >PostgreSQL</tspan></text><text  id="v-1401" font-size="16.799999999999997px" xml:space="preserve" y="114.7" text-anchor="middle" font-family="Tahoma, Verdana, Helvetica, Arial" fill="#ffffff" dominant-baseline="hanging" transform="matrix(1,0,0,1,225,0)" style="display: block; fill: rgb(255, 255, 255);"><tspan dy="0" >[Container: PostgreSQL 16]</tspan></text><text  id="v-1402" font-size="24px" xml:space="preserve" y="146.5" text-anchor="middle" font-family="Tahoma, Verdana, Helvetica, Arial" fill="#ffffff" dominant-baseline="hanging" transform="matrix(1,0,0,1,225,0)" style="display: block; fill: rgb(255, 255, 255);"><tspan dy="0" >Relational database used by the</tspan><tspan dy="1.2em" x="0" >backend through the data module.</tspan><tspan dy="1.2em" x="0" >This is the `postgres` service in</tspan><tspan dy="1.2em" x="0" >docker-compose.</tspan></text><g  id="v-1403" font-weight="normal" text-anchor="middle" color="#ffffff" transform="matrix(1,0,0,1,222.5,268)" display="none" style="fill: rgb(255, 255, 255);"><g ></g><g ></g><g ></g><g ></g></g><image  id="v-1404"></image></g></g><!--z-index:27--><g   id="j_109"  transform="translate(3360,954)" style=""><g  id="v-1408" style="opacity: 1;"><path  d="M 0,30 a 225,30 0,0,0 450 0 a 225,30 0,0,0 -450 0 l 0,240 a 225,30 0,0,0 450 0 l 0,-240" id="v-1409" stroke-width="2" pointer-events="visiblePainted" fill="#6b3a9c" stroke="#60348c" stroke-dasharray="" style="fill: rgb(107, 58, 156); stroke: rgb(96, 52, 140);"></path><rect  id="v-1410" stroke-width="0" pointer-events="visiblePainted" fill="none" stroke="none" width="450" height="270" x="0" y="30"></rect><text  id="v-1411" font-size="33.599999999999994px" xml:space="preserve" y="73.10000000000001" font-weight="bold" text-anchor="middle" pointer-events="visible" font-family="Tahoma, Verdana, Helvetica, Arial" fill="#ffffff" dominant-baseline="hanging" transform="matrix(1,0,0,1,225,0)" style="fill: rgb(255, 255, 255);"><tspan dy="0" >MongoDB</tspan></text><text  id="v-1412" font-size="16.799999999999997px" xml:space="preserve" y="114.7" text-anchor="middle" font-family="Tahoma, Verdana, Helvetica, Arial" fill="#ffffff" dominant-baseline="hanging" transform="matrix(1,0,0,1,225,0)" style="display: block; fill: rgb(255, 255, 255);"><tspan dy="0" >[Container: MongoDB 7]</tspan></text><text  id="v-1413" font-size="24px" xml:space="preserve" y="146.5" text-anchor="middle" font-family="Tahoma, Verdana, Helvetica, Arial" fill="#ffffff" dominant-baseline="hanging" transform="matrix(1,0,0,1,225,0)" style="display: block; fill: rgb(255, 255, 255);"><tspan dy="0" >Document database used by the</tspan><tspan dy="1.2em" x="0" >backend through the data module.</tspan><tspan dy="1.2em" x="0" >This is the `mongodb` service in</tspan><tspan dy="1.2em" x="0" >docker-compose.</tspan></text><g  id="v-1414" font-weight="normal" text-anchor="middle" color="#ffffff" transform="matrix(1,0,0,1,222.5,268)" display="none" style="fill: rgb(255, 255, 255);"><g ></g><g ></g><g ></g><g ></g></g><image  id="v-1415"></image></g></g><!--z-index:28--><g   id="j_110"  style="opacity: 1;"><path fill="none" cursor="pointer" stroke="transparent" stroke-linecap="round" joint-selector="wrapper" id="v-1427" stroke-width="10" stroke-linejoin="round" d="M 600 754.57 L 990 755.69"></path><path fill="none" pointer-events="none" joint-selector="line" id="v-1426" stroke="#444444" stroke-width="2" stroke-linejoin="round" stroke-dasharray="8 8" d="M 600 754.57 L 990 755.69" marker-end="url(#v-21252848929)"></path><g id="v-1419" ><g id="v-1420"  label-idx="0" cursor="move" transform="matrix(1,0,0,1,770,755.0582275390625)" style="cursor: default;"><rect joint-selector="rect" id="v-1423" fill="#ffffff" rx="3" ry="3" x="-84.1395263671875" y="-16.190942764282227" width="168.279052734375" height="26.732507705688477" pointer-events="none"  style="display: block;"></rect><text joint-selector="text" id="v-1422" font-size="24px" xml:space="preserve" fill="#444444" text-anchor="middle" pointer-events="none" font-family="Tahoma, Verdana, Helvetica, Arial" font-weight="normal"  style="display: block;"><tspan dy="0.3em" >Uses in browser</tspan></text></g><g id="v-1421"  label-idx="1" cursor="move" transform="matrix(1,0,0,1,760,767.0582275390625)" style="cursor: default;"><rect joint-selector="rect" id="v-1425" fill="#ffffff" rx="3" ry="3" x="1.1368683772161603e-13" y="0" width="0" height="0"  display="none"></rect><text joint-selector="text" id="v-1424" fill="#000000" font-size="14" text-anchor="middle" text-vertical-anchor="middle" pointer-events="none"></text></g></g></g><!--z-index:29--><g   id="j_111"  style="opacity: 1;"><path fill="none" cursor="pointer" stroke="transparent" stroke-linecap="round" joint-selector="wrapper" id="v-1442" stroke-width="10" stroke-linejoin="round" d="M 1440 755.81 L 1780 755.02" style="stroke-width: 10px;"></path><path fill="none" pointer-events="none" joint-selector="line" id="v-1441" stroke="#444444" stroke-width="2" stroke-linejoin="round" stroke-dasharray="8 8" d="M 1440 755.81 L 1780 755.02" marker-end="url(#v-21252848929)"></path><g id="v-1431" ><g id="v-1432"  label-idx="0" cursor="move" transform="matrix(1,0,0,1,1610,742.0150146484375)" style="cursor: default;"><rect joint-selector="rect" id="v-1436" fill="#ffffff" rx="3" ry="3" x="-93.85094451904297" y="-73.79094696044922" width="187.70188903808594" height="143.5464324951172" pointer-events="none"  style="display: block;"></rect><text joint-selector="text" id="v-1435" font-size="24px" xml:space="preserve" fill="#444444" text-anchor="middle" pointer-events="none" font-family="Tahoma, Verdana, Helvetica, Arial" font-weight="normal"  style="display: block;"><tspan dy="-2.1em" >Creates games,</tspan><tspan dy="1.2em" x="0" >joins sessions,</tspan><tspan dy="1.2em" x="0" >reads state, posts</tspan><tspan dy="1.2em" x="0" >moves, and looks</tspan><tspan dy="1.2em" x="0" >up openings</tspan></text></g><g id="v-1433"  label-idx="1" cursor="move" transform="matrix(1,0,0,1,1610,830.0150146484375)" style="cursor: default;"><rect joint-selector="rect" id="v-1438" fill="#ffffff" rx="3" ry="3" x="-49.027000427246094" y="-11.667817115783691" width="98.05400085449219" height="20.049381256103516"  pointer-events="none" style="display: block;"></rect><text joint-selector="text" id="v-1437" font-size="16.799999999999997px" xml:space="preserve" fill="#444444" text-anchor="middle" pointer-events="none" font-family="Tahoma, Verdana, Helvetica, Arial" font-weight="normal"  style="display: block;"><tspan dy="0.3em" >[HTTP/JSON]</tspan></text></g><g id="v-1434"  label-idx="2" cursor="move" transform="matrix(1,0,0,1,1600,838.4149780273438)" style="cursor: default;"><rect joint-selector="rect" id="v-1440" fill="#ffffff" rx="3" ry="3" x="0" y="0" width="0" height="0"  display="none"></rect><text joint-selector="text" id="v-1439" fill="#000000" font-size="14" text-anchor="middle" text-vertical-anchor="middle" pointer-events="none"></text></g></g></g><!--z-index:30--><g   id="j_112"  style="opacity: 1;"><path fill="none" cursor="pointer" stroke="transparent" stroke-linecap="round" joint-selector="wrapper" id="v-1457" stroke-width="10" stroke-linejoin="round" d="M 2230 754.5 L 2570 754.5"></path><path fill="none" pointer-events="none" joint-selector="line" id="v-1456" stroke="#444444" stroke-width="2" stroke-linejoin="round" stroke-dasharray="8 8" d="M 2230 754.5 L 2570 754.5" marker-end="url(#v-21252848929)"></path><g id="v-1446" ><g id="v-1447"  label-idx="0" cursor="move" transform="matrix(1,0,0,1,2400,741.0999755859375)" style="cursor: default;"><rect joint-selector="rect" id="v-1451" fill="#ffffff" rx="3" ry="3" x="-79.72761535644531" y="-44.990943908691406" width="159.45523071289062" height="85.81755065917969" pointer-events="none"  style="display: block;"></rect><text joint-selector="text" id="v-1450" font-size="24px" xml:space="preserve" fill="#444444" text-anchor="middle" pointer-events="none" font-family="Tahoma, Verdana, Helvetica, Arial" font-weight="normal"  style="display: block;"><tspan dy="-0.8999999999999999em" >Proxies session</tspan><tspan dy="1.2em" x="0" >and opening</tspan><tspan dy="1.2em" x="0" >requests</tspan></text></g><g id="v-1448"  label-idx="1" cursor="move" transform="matrix(1,0,0,1,2400,800.2999877929688)" style="cursor: default;"><rect joint-selector="rect" id="v-1453" fill="#ffffff" rx="3" ry="3" x="-49.027000427246094" y="-11.667817115783691" width="98.05400085449219" height="20.049381256103516"  pointer-events="none" style="display: block;"></rect><text joint-selector="text" id="v-1452" font-size="16.799999999999997px" xml:space="preserve" fill="#444444" text-anchor="middle" pointer-events="none" font-family="Tahoma, Verdana, Helvetica, Arial" font-weight="normal"  style="display: block;"><tspan dy="0.3em" >[HTTP/JSON]</tspan></text></g><g id="v-1449"  label-idx="2" cursor="move" transform="matrix(1,0,0,1,2390,808.7000122070312)" style="cursor: default;"><rect joint-selector="rect" id="v-1455" fill="#ffffff" rx="3" ry="3" x="0" y="0" width="0" height="0"  display="none"></rect><text joint-selector="text" id="v-1454" fill="#000000" font-size="14" text-anchor="middle" text-vertical-anchor="middle" pointer-events="none"></text></g></g></g><!--z-index:31--><g   id="j_113"  style="opacity: 1;"><path fill="none" cursor="pointer" stroke="transparent" stroke-linecap="round" joint-selector="wrapper" id="v-1472" stroke-width="10" stroke-linejoin="round" d="M 3020 754.36 L 3360 754.14"></path><path fill="none" pointer-events="none" joint-selector="line" id="v-1471" stroke="#444444" stroke-width="2" stroke-linejoin="round" stroke-dasharray="8 8" d="M 3020 754.36 L 3360 754.14" marker-end="url(#v-21252848929)"></path><g id="v-1461" ><g id="v-1462"  label-idx="0" cursor="move" transform="matrix(1,0,0,1,3190,740.8499755859375)" style="cursor: default;"><rect joint-selector="rect" id="v-1466" fill="#ffffff" rx="3" ry="3" x="-90.61380004882812" y="-30.590944290161133" width="181.22760009765625" height="57.14641571044922" pointer-events="none"  style="display: block;"></rect><text joint-selector="text" id="v-1465" font-size="24px" xml:space="preserve" fill="#444444" text-anchor="middle" pointer-events="none" font-family="Tahoma, Verdana, Helvetica, Arial" font-weight="normal"  style="display: block;"><tspan dy="-0.3em" >Reads and writes</tspan><tspan dy="1.2em" x="0" >games/openings</tspan></text></g><g id="v-1463"  label-idx="1" cursor="move" transform="matrix(1,0,0,1,3190,785.6500244140625)" style="cursor: default;"><rect joint-selector="rect" id="v-1468" fill="#ffffff" rx="3" ry="3" x="-59.86097717285156" y="-11.667817115783691" width="119.72195434570312" height="20.049381256103516"  pointer-events="none" style="display: block;"></rect><text joint-selector="text" id="v-1467" font-size="16.799999999999997px" xml:space="preserve" fill="#444444" text-anchor="middle" pointer-events="none" font-family="Tahoma, Verdana, Helvetica, Arial" font-weight="normal"  style="display: block;"><tspan dy="0.3em" >[JDBC / Doobie]</tspan></text></g><g id="v-1464"  label-idx="2" cursor="move" transform="matrix(1,0,0,1,3180,794.0499877929688)" style="cursor: default;"><rect joint-selector="rect" id="v-1470" fill="#ffffff" rx="3" ry="3" x="0" y="0" width="0" height="0"  display="none"></rect><text joint-selector="text" id="v-1469" fill="#000000" font-size="14" text-anchor="middle" text-vertical-anchor="middle" pointer-events="none"></text></g></g></g><!--z-index:32--><g   id="j_114"  style="opacity: 1;"><path fill="none" cursor="pointer" stroke="transparent" stroke-linecap="round" joint-selector="wrapper" id="v-1490" stroke-width="10" stroke-linejoin="round" d="M 3014.51 949 L 3183 1098 C 3187.6666666666665 1102.3333333333333 3193.333333333333 1104.3333333333333 3200 1104 L 3360 1104.28"></path><path fill="none" pointer-events="none" joint-selector="line" id="v-1489" stroke="#444444" stroke-width="2" stroke-linejoin="round" stroke-dasharray="8 8" d="M 3014.51 949 L 3183 1098 C 3187.6666666666665 1102.3333333333333 3193.333333333333 1104.3333333333333 3200 1104 L 3360 1104.28" marker-end="url(#v-21252848929)"></path><g id="v-1479" ><g id="v-1480"  label-idx="0" cursor="move" transform="matrix(1,0,0,1,3190.584228515625,1079.210693359375)" style="cursor: default;"><rect joint-selector="rect" id="v-1484" fill="#ffffff" rx="3" ry="3" x="-90.61380004882812" y="-30.590944290161133" width="181.22760009765625" height="57.14641571044922" pointer-events="none"  style="display: block;"></rect><text joint-selector="text" id="v-1483" font-size="24px" xml:space="preserve" fill="#444444" text-anchor="middle" pointer-events="none" font-family="Tahoma, Verdana, Helvetica, Arial" font-weight="normal"  style="display: block;"><tspan dy="-0.3em" >Reads and writes</tspan><tspan dy="1.2em" x="0" >games/openings</tspan></text></g><g id="v-1481"  label-idx="1" cursor="move" transform="matrix(1,0,0,1,3190.584228515625,1134.0906982421875)" style="cursor: default;"><rect joint-selector="rect" id="v-1486" fill="#ffffff" rx="3" ry="3" x="-68.3193130493164" y="-21.747817993164062" width="136.6386260986328" height="40.33250427246094"  pointer-events="none" style="display: block;"></rect><text joint-selector="text" id="v-1485" font-size="16.799999999999997px" xml:space="preserve" fill="#444444" text-anchor="middle" pointer-events="none" font-family="Tahoma, Verdana, Helvetica, Arial" font-weight="normal"  style="display: block;"><tspan dy="-0.3em" >[MongoDB driver /</tspan><tspan dy="1.2em" x="0" >mongo4cats]</tspan></text></g><g id="v-1482"  label-idx="2" cursor="move" transform="matrix(1,0,0,1,3155.630126953125,1132.519287109375)" style="cursor: default;"><rect joint-selector="rect" id="v-1488" fill="#ffffff" rx="3" ry="3" x="0" y="0" width="0" height="0"  display="none"></rect><text joint-selector="text" id="v-1487" fill="#000000" font-size="14" text-anchor="middle" text-vertical-anchor="middle" pointer-events="none"></text></g></g></g><!--z-index:33--><g   id="j_115"  style="opacity: 1;"><path fill="none" cursor="pointer" stroke="transparent" stroke-linecap="round" joint-selector="wrapper" id="v-1508" stroke-width="10" stroke-linejoin="round" d="M 3020 673.53 L 3181 616 C 3187 613.5666666666666 3192.6666666666665 610.2333333333332 3198 606 L 3389.04 460"></path><path fill="none" pointer-events="none" joint-selector="line" id="v-1507" stroke="#444444" stroke-width="2" stroke-linejoin="round" stroke-dasharray="8 8" d="M 3020 673.53 L 3181 616 C 3187 613.5666666666666 3192.6666666666665 610.2333333333332 3198 606 L 3389.04 460" marker-end="url(#v-21252848929)"></path><g id="v-1497" ><g id="v-1498"  label-idx="0" cursor="move" transform="matrix(1,0,0,1,3189.650390625,598.33349609375)" style="cursor: default;"><rect joint-selector="rect" id="v-1502" fill="#ffffff" rx="3" ry="3" x="-76.85595703125" y="-30.590944290161133" width="153.7119140625" height="57.14641571044922" pointer-events="none"  style="display: block;"></rect><text joint-selector="text" id="v-1501" font-size="24px" xml:space="preserve" fill="#444444" text-anchor="middle" pointer-events="none" font-family="Tahoma, Verdana, Helvetica, Arial" font-weight="normal"  style="display: block;"><tspan dy="-0.3em" >Loads bundled</tspan><tspan dy="1.2em" x="0" >opening data</tspan></text></g><g id="v-1499"  label-idx="1" cursor="move" transform="matrix(1,0,0,1,3189.650390625,643.1334838867188)" style="cursor: default;"><rect joint-selector="rect" id="v-1504" fill="#ffffff" rx="3" ry="3" x="-79.8059310913086" y="-11.667817115783691" width="159.6118621826172" height="20.082406997680664"  pointer-events="none" style="display: block;"></rect><text joint-selector="text" id="v-1503" font-size="16.799999999999997px" xml:space="preserve" fill="#444444" text-anchor="middle" pointer-events="none" font-family="Tahoma, Verdana, Helvetica, Arial" font-weight="normal"  style="display: block;"><tspan dy="0.3em" >[Classpath resources]</tspan></text></g><g id="v-1500"  label-idx="2" cursor="move" transform="matrix(1,0,0,1,3207.738525390625,630.7151489257812)" style="cursor: default;"><rect joint-selector="rect" id="v-1506" fill="#ffffff" rx="3" ry="3" x="0" y="0" width="0" height="0"  display="none"></rect><text joint-selector="text" id="v-1505" fill="#000000" font-size="14" text-anchor="middle" text-vertical-anchor="middle" pointer-events="none"></text></g></g></g><!--z-index:34--><!--z-index:35--><!--z-index:36--><!--z-index:37--><!--z-index:38--><!--z-index:39--><!--z-index:40--><!--z-index:41--><!--z-index:42--><!--z-index:43--><!--z-index:44--><!--z-index:45--><!--z-index:46--><!--z-index:47--><!--z-index:48--></g><g  style="user-select: none;"></g><g ></g><g  display="none"></g></g></svg>