<?xml version="1.0" encoding="UTF-8"?>
<svg xmlns="http://www.w3.org/2000/svg" width="1120" height="640" viewBox="0 0 1120 640">
  <rect width="100%" height="100%" fill="#ffffff"/>
<text x="40" y="40" font-family="Arial, Helvetica, sans-serif" font-size="26" fill="#111" text-anchor="start" font-weight="bold">INdigit</text>
<text x="40" y="80" font-family="Arial, Helvetica, sans-serif" font-size="14" fill="#111" text-anchor="start" font-weight="normal">
<tspan x="40" dy="0">Modulbeschreibungen</tspan>
<tspan x="40" dy="17.5">Teamprojekte</tspan>
<tspan x="40" dy="17.5">Abschlussarbeiten</tspan>
<tspan x="40" dy="17.5">Seminare</tspan>
</text>
<rect x="280" y="60" width="780" height="44" fill="#5D9CEC" stroke="none" stroke-width="1" rx="0"/>
<text x="300" y="88" font-family="Arial, Helvetica, sans-serif" font-size="16" fill="#fff" text-anchor="start" font-weight="bold">☰   INdigit</text>
<rect x="280" y="104" width="200" height="480" fill="#4A4A4A" stroke="none" stroke-width="1" rx="0"/>
<rect x="290" y="120" width="180" height="40" fill="#4A4A4A" stroke="none" stroke-width="0" rx="4"/>
<text x="302" y="145" font-family="Arial, Helvetica, sans-serif" font-size="12" fill="#fff" text-anchor="start" font-weight="normal">Home</text>
<rect x="290" y="170" width="180" height="40" fill="#4A4A4A" stroke="none" stroke-width="0" rx="4"/>
<text x="302" y="195" font-family="Arial, Helvetica, sans-serif" font-size="12" fill="#fff" text-anchor="start" font-weight="normal">Kapazitätsplanung</text>
<rect x="290" y="220" width="180" height="40" fill="#4A4A4A" stroke="none" stroke-width="0" rx="4"/>
<text x="302" y="245" font-family="Arial, Helvetica, sans-serif" font-size="12" fill="#fff" text-anchor="start" font-weight="normal">Module</text>
<rect x="290" y="270" width="180" height="40" fill="#5D9CEC" stroke="none" stroke-width="0" rx="4"/>
<text x="302" y="295" font-family="Arial, Helvetica, sans-serif" font-size="12" fill="#fff" text-anchor="start" font-weight="normal">Projekte ▶</text>
<rect x="290" y="320" width="180" height="40" fill="#4A4A4A" stroke="none" stroke-width="0" rx="4"/>
<text x="302" y="345" font-family="Arial, Helvetica, sans-serif" font-size="12" fill="#fff" text-anchor="start" font-weight="normal">Abschlussarbeiten</text>
<rect x="290" y="370" width="180" height="40" fill="#4A4A4A" stroke="none" stroke-width="0" rx="4"/>
<text x="302" y="395" font-family="Arial, Helvetica, sans-serif" font-size="12" fill="#fff" text-anchor="start" font-weight="normal">Notizen</text>
<rect x="290" y="420" width="180" height="40" fill="#4A4A4A" stroke="none" stroke-width="0" rx="4"/>
<text x="302" y="445" font-family="Arial, Helvetica, sans-serif" font-size="12" fill="#fff" text-anchor="start" font-weight="normal">Benachrichtigungen (182)</text>
<rect x="290" y="470" width="180" height="40" fill="#4A4A4A" stroke="none" stroke-width="0" rx="4"/>
<text x="302" y="495" font-family="Arial, Helvetica, sans-serif" font-size="12" fill="#fff" text-anchor="start" font-weight="normal">Support</text>
<rect x="480" y="104" width="580" height="480" fill="#fff" stroke="#ddd" stroke-width="1" rx="0"/>
<text x="500" y="140" font-family="Arial, Helvetica, sans-serif" font-size="20" fill="#111" text-anchor="start" font-weight="bold">Übersicht</text>
<rect x="500" y="160" width="400" height="36" fill="#F5F5F5" stroke="#ccc" stroke-width="1" rx="6"/>
<text x="520" y="183" font-family="Arial, Helvetica, sans-serif" font-size="13" fill="#888" text-anchor="start" font-weight="normal">🔍  Suche …</text>
<rect x="910" y="160" width="80" height="36" fill="#5D9CEC" stroke="none" stroke-width="0" rx="6"/>
<text x="950" y="183" font-family="Arial, Helvetica, sans-serif" font-size="13" fill="#fff" text-anchor="middle" font-weight="bold">Suche</text>
<rect x="500" y="220" width="540" height="32" fill="#EEE" stroke="none" stroke-width="1" rx="0"/>
<text x="512" y="241" font-family="Arial, Helvetica, sans-serif" font-size="13" fill="#111" text-anchor="start" font-weight="bold">Projektrahmen</text>
<rect x="500" y="255" width="540" height="45" fill="#fff" stroke="#eee" stroke-width="1" rx="0"/>
<text x="520" y="283" font-family="Arial, Helvetica, sans-serif" font-size="13" fill="#111" text-anchor="start" font-weight="normal">📄  Seminar MSI SS25</text>
<rect x="500" y="305" width="540" height="45" fill="#fff" stroke="#eee" stroke-width="1" rx="0"/>
<text x="520" y="333" font-family="Arial, Helvetica, sans-serif" font-size="13" fill="#111" text-anchor="start" font-weight="normal">📄  Teamprojekt AIN SS25</text>
<rect x="500" y="355" width="540" height="45" fill="#fff" stroke="#eee" stroke-width="1" rx="0"/>
<text x="520" y="383" font-family="Arial, Helvetica, sans-serif" font-size="13" fill="#111" text-anchor="start" font-weight="normal">📄  Teamprojekt AIN WS24/25</text>
<rect x="500" y="405" width="540" height="45" fill="#fff" stroke="#eee" stroke-width="1" rx="0"/>
<text x="520" y="433" font-family="Arial, Helvetica, sans-serif" font-size="13" fill="#111" text-anchor="start" font-weight="normal">📄  Teamprojekt BIT SS23</text>
</svg>
