<?xml version="1.0" encoding="UTF-8"?>
<svg xmlns="http://www.w3.org/2000/svg" width="1120" height="580" viewBox="0 0 1120 580">
  <rect width="100%" height="100%" fill="#ffffff"/>
<text x="40" y="40" font-family="Arial, Helvetica, sans-serif" font-size="24" fill="#111" text-anchor="start" font-weight="bold">Prüfungstermine</text>
<rect x="40" y="70" width="1020" height="40" fill="#34495E" stroke="none" stroke-width="1" rx="0"/>
<text x="52" y="96" font-family="Arial, Helvetica, sans-serif" font-size="14" fill="#fff" text-anchor="start" font-weight="bold">Prüfungsthemen SoSe 2026</text>
<rect x="40" y="115" width="550" height="65" fill="#E8EBEF" stroke="#fff" stroke-width="2" rx="0"/>
<rect x="590" y="115" width="470" height="65" fill="#DCE6F2" stroke="#fff" stroke-width="2" rx="0"/>
<text x="52" y="153" font-family="Arial, Helvetica, sans-serif" font-size="12" fill="#111" text-anchor="start" font-weight="bold">Bekanntgabe Prüfungstermine 1. PZ:</text>
<text x="602" y="153" font-family="Arial, Helvetica, sans-serif" font-size="13" fill="#111" text-anchor="start" font-weight="normal">bis spätestens Do., 30. April 2026</text>
<rect x="40" y="185" width="550" height="65" fill="#E8EBEF" stroke="#fff" stroke-width="2" rx="0"/>
<rect x="590" y="185" width="470" height="65" fill="#DCE6F2" stroke="#fff" stroke-width="2" rx="0"/>
<text x="52" y="223" font-family="Arial, Helvetica, sans-serif" font-size="12" fill="#111" text-anchor="start" font-weight="bold">Prüfungsan-/abmeldung:</text>
<text x="602" y="223" font-family="Arial, Helvetica, sans-serif" font-size="13" fill="#111" text-anchor="start" font-weight="normal">Mi., 20. Mai bis Mi., 10. Juni 2026</text>
<rect x="40" y="255" width="550" height="65" fill="#E8EBEF" stroke="#fff" stroke-width="2" rx="0"/>
<rect x="590" y="255" width="470" height="65" fill="#DCE6F2" stroke="#fff" stroke-width="2" rx="0"/>
<text x="52" y="293" font-family="Arial, Helvetica, sans-serif" font-size="12" fill="#111" text-anchor="start" font-weight="bold">spätester Termin An-/Abmelden ZPA:</text>
<text x="602" y="293" font-family="Arial, Helvetica, sans-serif" font-size="13" fill="#111" text-anchor="start" font-weight="normal">Mi., 10. Juni 2026</text>
<rect x="40" y="325" width="550" height="65" fill="#E8EBEF" stroke="#fff" stroke-width="2" rx="0"/>
<rect x="590" y="325" width="470" height="65" fill="#DCE6F2" stroke="#fff" stroke-width="2" rx="0"/>
<text x="52" y="363" font-family="Arial, Helvetica, sans-serif" font-size="12" fill="#111" text-anchor="start" font-weight="bold">1. Prüfungszeitraum:</text>
<text x="602" y="363" font-family="Arial, Helvetica, sans-serif" font-size="13" fill="#111" text-anchor="start" font-weight="normal">Sa., 04. Juli bis Mi., 29. Juli 2026</text>
<rect x="40" y="395" width="550" height="65" fill="#E8EBEF" stroke="#fff" stroke-width="2" rx="0"/>
<rect x="590" y="395" width="470" height="65" fill="#DCE6F2" stroke="#fff" stroke-width="2" rx="0"/>
<text x="52" y="433" font-family="Arial, Helvetica, sans-serif" font-size="12" fill="#111" text-anchor="start" font-weight="bold">Bekanntgabe Ergebnisse 1. PZ:</text>
<text x="602" y="433" font-family="Arial, Helvetica, sans-serif" font-size="13" fill="#111" text-anchor="start" font-weight="normal">bis spätestens Mo., 31. August 2026</text>
<rect x="40" y="465" width="550" height="65" fill="#E8EBEF" stroke="#fff" stroke-width="2" rx="0"/>
<rect x="590" y="465" width="470" height="65" fill="#DCE6F2" stroke="#fff" stroke-width="2" rx="0"/>
<text x="52" y="503" font-family="Arial, Helvetica, sans-serif" font-size="12" fill="#111" text-anchor="start" font-weight="bold">2. Prüfungszeitraum:</text>
<text x="602" y="503" font-family="Arial, Helvetica, sans-serif" font-size="13" fill="#111" text-anchor="start" font-weight="normal">Mo., 28. September bis Fr., 09. Oktober 2026</text>
</svg>
