<svg xmlns="http://www.w3.org/2000/svg" viewBox="0 0 400 320" width="400" height="320">
<defs>
<marker id="a" viewBox="0 0 10 10" refX="9" refY="5" markerWidth="7" markerHeight="7" orient="auto-start-reverse"><path d="M0,0 L10,5 L0,10 z" fill="#334152"/></marker>
<marker id="g" viewBox="0 0 10 10" refX="9" refY="5" markerWidth="6" markerHeight="6" orient="auto-start-reverse"><path d="M0,0 L10,5 L0,10 z" fill="#7A8794"/></marker>
</defs>
<rect x="148" y="20" width="104" height="34" rx="6" fill="#009B91" stroke="#009B91" stroke-width="2"/><text x="200.0" y="42.0" text-anchor="middle" font-family="Helvetica Neue, Helvetica, Arial, sans-serif" font-size="15" font-weight="600" fill="#fff">Function 1</text>
<rect x="36" y="130" width="104" height="34" rx="6" fill="#009B91" stroke="#009B91" stroke-width="2"/><text x="88.0" y="152.0" text-anchor="middle" font-family="Helvetica Neue, Helvetica, Arial, sans-serif" font-size="15" font-weight="600" fill="#fff">Function 2</text>
<rect x="244" y="130" width="104" height="34" rx="6" fill="#009B91" stroke="#009B91" stroke-width="2"/><text x="296.0" y="152.0" text-anchor="middle" font-family="Helvetica Neue, Helvetica, Arial, sans-serif" font-size="15" font-weight="600" fill="#fff">Function 3</text>
<rect x="172" y="236" width="104" height="34" rx="6" fill="#009B91" stroke="#009B91" stroke-width="2"/><text x="224.0" y="258.0" text-anchor="middle" font-family="Helvetica Neue, Helvetica, Arial, sans-serif" font-size="15" font-weight="600" fill="#fff">Function 4</text>
<rect x="292" y="236" width="104" height="34" rx="6" fill="#009B91" stroke="#009B91" stroke-width="2"/><text x="344.0" y="258.0" text-anchor="middle" font-family="Helvetica Neue, Helvetica, Arial, sans-serif" font-size="15" font-weight="600" fill="#fff">Function 5</text>
<rect x="4" y="20" width="96" height="34" rx="17.0" fill="#fff" stroke="#334152" stroke-width="2"/><text x="52.0" y="42.0" text-anchor="middle" font-family="Helvetica Neue, Helvetica, Arial, sans-serif" font-size="15" font-weight="600" fill="#334152">Input</text>
<rect x="300" y="20" width="96" height="34" rx="17.0" fill="#fff" stroke="#334152" stroke-width="2"/><text x="348.0" y="42.0" text-anchor="middle" font-family="Helvetica Neue, Helvetica, Arial, sans-serif" font-size="15" font-weight="600" fill="#334152">Result</text>
<line x1="100" y1="37" x2="148" y2="37" stroke="#334152" stroke-width="2" marker-end="url(#a)"/>
<line x1="252" y1="37" x2="300" y2="37" stroke="#334152" stroke-width="2" marker-end="url(#a)"/>
<line x1="186" y1="54" x2="100" y2="130" stroke="#334152" stroke-width="2" marker-start="url(#a)" marker-end="url(#a)"/>
<line x1="214" y1="54" x2="282" y2="130" stroke="#334152" stroke-width="2" marker-start="url(#a)" marker-end="url(#a)"/>
<line x1="282" y1="164" x2="230" y2="236" stroke="#334152" stroke-width="2" marker-start="url(#a)" marker-end="url(#a)"/>
<line x1="310" y1="164" x2="334" y2="236" stroke="#334152" stroke-width="2" marker-start="url(#a)" marker-end="url(#a)"/>
</svg>
