<svg xmlns="http://www.w3.org/2000/svg" viewBox="0 0 400 320" width="400" height="320">
<defs>
<marker id="a" viewBox="0 0 10 10" refX="9" refY="5" markerWidth="7" markerHeight="7" orient="auto-start-reverse"><path d="M0,0 L10,5 L0,10 z" fill="#334152"/></marker>
<marker id="g" viewBox="0 0 10 10" refX="9" refY="5" markerWidth="6" markerHeight="6" orient="auto-start-reverse"><path d="M0,0 L10,5 L0,10 z" fill="#7A8794"/></marker>
</defs>
<rect x="130" y="8" width="140" height="34" rx="6" fill="#334152" stroke="#334152" stroke-width="2"/><text x="200.0" y="30.0" text-anchor="middle" font-family="Helvetica Neue, Helvetica, Arial, sans-serif" font-size="15" font-weight="600" fill="#fff">Main Program</text>
<rect x="8" y="92" width="112" height="34" rx="6" fill="#009B91" stroke="#009B91" stroke-width="2"/><text x="64.0" y="114.0" text-anchor="middle" font-family="Helvetica Neue, Helvetica, Arial, sans-serif" font-size="15" font-weight="600" fill="#fff">Procedure 1</text>
<rect x="144" y="92" width="112" height="34" rx="6" fill="#009B91" stroke="#009B91" stroke-width="2"/><text x="200.0" y="114.0" text-anchor="middle" font-family="Helvetica Neue, Helvetica, Arial, sans-serif" font-size="15" font-weight="600" fill="#fff">Procedure 2</text>
<rect x="280" y="92" width="112" height="34" rx="6" fill="#009B91" stroke="#009B91" stroke-width="2"/><text x="336.0" y="114.0" text-anchor="middle" font-family="Helvetica Neue, Helvetica, Arial, sans-serif" font-size="15" font-weight="600" fill="#fff">Procedure 3</text>
<rect x="60" y="172" width="112" height="34" rx="6" fill="#009B91" stroke="#009B91" stroke-width="2"/><text x="116.0" y="194.0" text-anchor="middle" font-family="Helvetica Neue, Helvetica, Arial, sans-serif" font-size="15" font-weight="600" fill="#fff">Procedure 4</text>
<rect x="228" y="172" width="112" height="34" rx="6" fill="#009B91" stroke="#009B91" stroke-width="2"/><text x="284.0" y="194.0" text-anchor="middle" font-family="Helvetica Neue, Helvetica, Arial, sans-serif" font-size="15" font-weight="600" fill="#fff">Procedure 5</text>
<line x1="200" y1="42" x2="64.0" y2="92" stroke="#334152" stroke-width="2" marker-end="url(#a)"/>
<line x1="200" y1="42" x2="200.0" y2="92" stroke="#334152" stroke-width="2" marker-end="url(#a)"/>
<line x1="200" y1="42" x2="336.0" y2="92" stroke="#334152" stroke-width="2" marker-end="url(#a)"/>
<line x1="64.0" y1="126" x2="101.0" y2="172" stroke="#334152" stroke-width="2" marker-end="url(#a)"/>
<line x1="200.0" y1="126" x2="136.0" y2="172" stroke="#334152" stroke-width="2" marker-end="url(#a)"/>
<line x1="200.0" y1="126" x2="284.0" y2="172" stroke="#334152" stroke-width="2" marker-end="url(#a)"/>
<rect x="60" y="268" width="280" height="36" rx="6" fill="#fff" stroke="#334152" stroke-width="2" stroke-dasharray="6 4"/><text x="200.0" y="291.0" text-anchor="middle" font-family="Helvetica Neue, Helvetica, Arial, sans-serif" font-size="15" font-weight="600" fill="#334152">Global Data</text>
<line x1="116.0" y1="206" x2="150" y2="268" stroke="#7A8794" stroke-width="1.6" stroke-dasharray="5 4" marker-start="url(#g)" marker-end="url(#g)"/>
<line x1="284.0" y1="206" x2="250" y2="268" stroke="#7A8794" stroke-width="1.6" stroke-dasharray="5 4" marker-start="url(#g)" marker-end="url(#g)"/>
<line x1="372" y1="126" x2="330" y2="268" stroke="#7A8794" stroke-width="1.6" stroke-dasharray="5 4" marker-start="url(#g)" marker-end="url(#g)"/>
</svg>
